<svg width="90" height="90" viewBox="0 0 90 90" fill="none" xmlns="http://www.w3.org/2000/svg">
<circle cx="45" cy="45" r="45" fill="#FEFEFE"/>
<circle cx="45" cy="45" r="40" fill="#F5F5F5"/>
<circle cx="45" cy="45" r="34" fill="white"/>
<path d="M51 54.1201C51 57.6301 48.66 59.9551 45.165 59.9551H35.835C32.34 59.9551 30 57.6301 30 54.1201V42.4651C30 38.9551 32.34 36.6301 35.835 36.6301H41.58C43.125 36.6301 44.61 37.2451 45.705 38.3401L49.29 41.9101C50.385 43.0051 51 44.4901 51 46.0351V54.1201Z" stroke="#1E60AA" stroke-width="2.25" stroke-linecap="round" stroke-linejoin="round"/>
<path d="M60 47.46C60 50.955 57.66 53.295 54.165 53.295H51V46.035C51 44.49 50.385 43.005 49.29 41.91L45.705 38.34C44.61 37.245 43.125 36.63 41.58 36.63H39V35.79C39 32.295 41.34 29.955 44.835 29.955H50.58C52.125 29.955 53.61 30.57 54.705 31.665L58.29 35.25C59.385 36.345 60 37.83 60 39.375V47.46Z" stroke="#1E60AA" stroke-width="2.25" stroke-linecap="round" stroke-linejoin="round"/>
</svg>
