<svg width="22" height="22" viewBox="0 0 22 22" fill="none" xmlns="http://www.w3.org/2000/svg">
<path d="M9.29116 6.40559C9.80279 6.2521 10.3656 6.14978 11 6.14978C13.8242 6.14978 16.1163 8.44187 16.1163 11.2661C16.1163 14.0902 13.8242 16.3823 11 16.3823C8.17581 16.3823 5.88372 14.0902 5.88372 11.2661C5.88372 10.2121 6.20093 9.24001 6.74325 8.42141" stroke="#1E60AA" stroke-width="1.5" stroke-linecap="round" stroke-linejoin="round"/>
<path d="M8.56465 6.54883L10.2633 4.59441" stroke="#1E60AA" stroke-width="1.5" stroke-linecap="round" stroke-linejoin="round"/>
<path d="M8.56465 6.54874L10.5498 8.00176" stroke="#1E60AA" stroke-width="1.5" stroke-linecap="round" stroke-linejoin="round"/>
<path d="M14.0698 21.2326C19.186 21.2326 21.2326 19.186 21.2326 14.0698V7.93023C21.2326 2.81395 19.186 0.767442 14.0698 0.767442H7.93023C2.81395 0.767442 0.767442 2.81395 0.767442 7.93023V14.0698C0.767442 19.186 2.81395 21.2326 7.93023 21.2326H14.0698Z" stroke="#1E60AA" stroke-width="1.5" stroke-linecap="round" stroke-linejoin="round"/>
</svg>
