<svg width="20" height="22" viewBox="0 0 20 22" fill="none" xmlns="http://www.w3.org/2000/svg">
<path d="M15.3403 18.0216C14.5216 18.0216 13.7439 18.3388 13.1708 18.9119L11.4208 20.6414C10.6226 21.4294 9.32294 21.4294 8.52471 20.6414L6.77472 18.9119C6.20163 18.3388 5.41364 18.0216 4.60517 18.0216H3.83765C2.13885 18.0216 0.767529 16.6605 0.767529 14.9822V3.80694C0.767529 2.12861 2.13885 0.767529 3.83765 0.767529H16.1181C17.8169 0.767529 19.1882 2.12861 19.1882 3.80694V14.9719C19.1882 16.6503 17.8169 18.0216 16.1181 18.0216H15.3403Z" stroke="#1E60AA" stroke-width="1.5" stroke-linecap="round" stroke-linejoin="round"/>
<path d="M9.89593 7.88001C8.82139 7.83908 7.97198 6.96921 7.97198 5.88444C7.97198 4.7792 8.86233 3.88886 9.96757 3.88886C11.0728 3.88886 11.9632 4.78943 11.9632 5.88444C11.9734 6.96921 11.124 7.84931 10.0495 7.88001C10.0085 7.88001 9.9471 7.88001 9.89593 7.88001Z" stroke="#1E60AA" stroke-width="1.5" stroke-linecap="round" stroke-linejoin="round"/>
<path d="M7.16354 14.2659C8.70884 15.2995 11.2468 15.2995 12.7921 14.2659C14.1532 13.3551 14.1532 11.8712 12.7921 10.9604C11.2468 9.93703 8.71907 9.93703 7.16354 10.9604C5.80246 11.8712 5.80246 13.3551 7.16354 14.2659Z" stroke="#1E60AA" stroke-width="1.5" stroke-linecap="round" stroke-linejoin="round"/>
</svg>
